<mxfile host="app.diagrams.net" agent="Mozilla/5.0 (Windows NT 10.0; Win64; x64) AppleWebKit/537.36 (KHTML, like Gecko) Chrome/133.0.0.0 Safari/537.36" version="26.0.14">
  <diagram name="Page-1" id="o0o6sB9UFsUhAn0cK34z">
    <mxGraphModel dx="1760" dy="936" grid="1" gridSize="10" guides="1" tooltips="1" connect="1" arrows="1" fold="1" page="1" pageScale="1" pageWidth="850" pageHeight="1100" math="0" shadow="0">
      <root>
        <mxCell id="0" />
        <mxCell id="1" parent="0" />
        <mxCell id="l1SOu43gs9OJBhmDE_op-47" value="5️⃣ AI Chatbot Assistance" style="whiteSpace=wrap;strokeWidth=2;verticalAlign=top;" vertex="1" parent="1">
          <mxGeometry x="20" y="125" width="330" height="411" as="geometry" />
        </mxCell>
        <mxCell id="l1SOu43gs9OJBhmDE_op-48" value="User Interacts with AI Chatbot" style="whiteSpace=wrap;strokeWidth=2;" vertex="1" parent="l1SOu43gs9OJBhmDE_op-47">
          <mxGeometry x="43" y="46" width="260" height="78" as="geometry" />
        </mxCell>
        <mxCell id="l1SOu43gs9OJBhmDE_op-49" value="Chatbot Retrieves Info" style="whiteSpace=wrap;strokeWidth=2;" vertex="1" parent="l1SOu43gs9OJBhmDE_op-47">
          <mxGeometry x="63" y="199" width="221" height="54" as="geometry" />
        </mxCell>
        <mxCell id="l1SOu43gs9OJBhmDE_op-50" value="Chatbot Provides Assistance" style="whiteSpace=wrap;strokeWidth=2;" vertex="1" parent="l1SOu43gs9OJBhmDE_op-47">
          <mxGeometry x="44" y="328" width="259" height="54" as="geometry" />
        </mxCell>
        <mxCell id="l1SOu43gs9OJBhmDE_op-51" value="" style="curved=1;startArrow=none;endArrow=block;exitX=0.5;exitY=0.99;entryX=0.5;entryY=-0.01;rounded=0;" edge="1" parent="l1SOu43gs9OJBhmDE_op-47" source="l1SOu43gs9OJBhmDE_op-48" target="l1SOu43gs9OJBhmDE_op-49">
          <mxGeometry relative="1" as="geometry">
            <Array as="points" />
          </mxGeometry>
        </mxCell>
        <mxCell id="l1SOu43gs9OJBhmDE_op-52" value="" style="curved=1;startArrow=none;endArrow=block;exitX=0.5;exitY=0.99;entryX=0.5;entryY=-0.01;rounded=0;" edge="1" parent="l1SOu43gs9OJBhmDE_op-47" source="l1SOu43gs9OJBhmDE_op-49" target="l1SOu43gs9OJBhmDE_op-50">
          <mxGeometry relative="1" as="geometry">
            <Array as="points" />
          </mxGeometry>
        </mxCell>
        <mxCell id="l1SOu43gs9OJBhmDE_op-53" value="4️⃣ Legal Aid Support" style="whiteSpace=wrap;strokeWidth=2;" vertex="1" parent="1">
          <mxGeometry x="2130" y="100" width="333" height="868" as="geometry" />
        </mxCell>
        <mxCell id="l1SOu43gs9OJBhmDE_op-54" value="3️⃣ Telemedicine Assistance" style="whiteSpace=wrap;strokeWidth=2;" vertex="1" parent="1">
          <mxGeometry x="1545" y="100" width="334" height="868" as="geometry" />
        </mxCell>
        <mxCell id="l1SOu43gs9OJBhmDE_op-55" value="2️⃣ GPS Tracking &amp; Location Sharing" style="whiteSpace=wrap;strokeWidth=2;" vertex="1" parent="1">
          <mxGeometry x="1020" y="100" width="338" height="716" as="geometry" />
        </mxCell>
        <mxCell id="l1SOu43gs9OJBhmDE_op-56" value="1️⃣ Emergency Request Processing" style="whiteSpace=wrap;strokeWidth=2;" vertex="1" parent="1">
          <mxGeometry x="385" y="100" width="615" height="868" as="geometry" />
        </mxCell>
        <mxCell id="l1SOu43gs9OJBhmDE_op-57" value="Receive Emergency Request" style="whiteSpace=wrap;strokeWidth=2;" vertex="1" parent="1">
          <mxGeometry x="586" y="304" width="260" height="54" as="geometry" />
        </mxCell>
        <mxCell id="l1SOu43gs9OJBhmDE_op-58" value="Validate Request" style="whiteSpace=wrap;strokeWidth=2;" vertex="1" parent="1">
          <mxGeometry x="626" y="586" width="180" height="54" as="geometry" />
        </mxCell>
        <mxCell id="l1SOu43gs9OJBhmDE_op-59" value="Forward to Emergency Service" style="whiteSpace=wrap;strokeWidth=2;" vertex="1" parent="1">
          <mxGeometry x="449" y="713" width="260" height="78" as="geometry" />
        </mxCell>
        <mxCell id="l1SOu43gs9OJBhmDE_op-60" value="Update User Status" style="whiteSpace=wrap;strokeWidth=2;" vertex="1" parent="1">
          <mxGeometry x="436" y="889" width="197" height="54" as="geometry" />
        </mxCell>
        <mxCell id="l1SOu43gs9OJBhmDE_op-61" value="Request More Info" style="whiteSpace=wrap;strokeWidth=2;" vertex="1" parent="1">
          <mxGeometry x="759" y="725" width="189" height="54" as="geometry" />
        </mxCell>
        <mxCell id="l1SOu43gs9OJBhmDE_op-62" value="User Shares Location" style="whiteSpace=wrap;strokeWidth=2;" vertex="1" parent="1">
          <mxGeometry x="1091" y="304" width="209" height="54" as="geometry" />
        </mxCell>
        <mxCell id="l1SOu43gs9OJBhmDE_op-63" value="Store Location in Database" style="whiteSpace=wrap;strokeWidth=2;" vertex="1" parent="1">
          <mxGeometry x="1069" y="586" width="252" height="54" as="geometry" />
        </mxCell>
        <mxCell id="l1SOu43gs9OJBhmDE_op-64" value="Send Location to Emergency Service" style="whiteSpace=wrap;strokeWidth=2;" vertex="1" parent="1">
          <mxGeometry x="1055" y="713" width="260" height="78" as="geometry" />
        </mxCell>
        <mxCell id="l1SOu43gs9OJBhmDE_op-65" value="User Requests Medical Help" style="whiteSpace=wrap;strokeWidth=2;" vertex="1" parent="1">
          <mxGeometry x="1588" y="304" width="257" height="54" as="geometry" />
        </mxCell>
        <mxCell id="l1SOu43gs9OJBhmDE_op-66" value="Connect to Doctor" style="whiteSpace=wrap;strokeWidth=2;" vertex="1" parent="1">
          <mxGeometry x="1621" y="586" width="191" height="54" as="geometry" />
        </mxCell>
        <mxCell id="l1SOu43gs9OJBhmDE_op-67" value="Doctor Provides Advice" style="whiteSpace=wrap;strokeWidth=2;" vertex="1" parent="1">
          <mxGeometry x="1594" y="725" width="223" height="54" as="geometry" />
        </mxCell>
        <mxCell id="l1SOu43gs9OJBhmDE_op-68" value="Store in Medical Database" style="whiteSpace=wrap;strokeWidth=2;" vertex="1" parent="1">
          <mxGeometry x="1583" y="889" width="245" height="54" as="geometry" />
        </mxCell>
        <mxCell id="l1SOu43gs9OJBhmDE_op-69" value="User Requests Legal Help" style="whiteSpace=wrap;strokeWidth=2;" vertex="1" parent="1">
          <mxGeometry x="2183" y="304" width="240" height="54" as="geometry" />
        </mxCell>
        <mxCell id="l1SOu43gs9OJBhmDE_op-70" value="Forward to Legal Advisor" style="whiteSpace=wrap;strokeWidth=2;" vertex="1" parent="1">
          <mxGeometry x="2184" y="586" width="237" height="54" as="geometry" />
        </mxCell>
        <mxCell id="l1SOu43gs9OJBhmDE_op-71" value="Legal Advisor Responds" style="whiteSpace=wrap;strokeWidth=2;" vertex="1" parent="1">
          <mxGeometry x="2181" y="725" width="224" height="54" as="geometry" />
        </mxCell>
        <mxCell id="l1SOu43gs9OJBhmDE_op-72" value="Log Interaction in Database" style="whiteSpace=wrap;strokeWidth=2;" vertex="1" parent="1">
          <mxGeometry x="2165" y="889" width="257" height="54" as="geometry" />
        </mxCell>
        <mxCell id="l1SOu43gs9OJBhmDE_op-73" value="User Database" style="shape=cylinder3;boundedLbl=1;backgroundOutline=1;size=10;strokeWidth=2;whiteSpace=wrap;" vertex="1" parent="1">
          <mxGeometry x="1393" y="714" width="117" height="75" as="geometry" />
        </mxCell>
        <mxCell id="l1SOu43gs9OJBhmDE_op-74" value="Emergency Request Database" style="shape=cylinder3;boundedLbl=1;backgroundOutline=1;size=10;strokeWidth=2;whiteSpace=wrap;" vertex="1" parent="1">
          <mxGeometry x="427" y="1018" width="215" height="110" as="geometry" />
        </mxCell>
        <mxCell id="l1SOu43gs9OJBhmDE_op-75" value="Medical Database" style="shape=cylinder3;boundedLbl=1;backgroundOutline=1;size=10;strokeWidth=2;whiteSpace=wrap;" vertex="1" parent="1">
          <mxGeometry x="1636" y="1034" width="140" height="79" as="geometry" />
        </mxCell>
        <mxCell id="l1SOu43gs9OJBhmDE_op-76" value="Legal Aid Database" style="shape=cylinder3;boundedLbl=1;backgroundOutline=1;size=10;strokeWidth=2;whiteSpace=wrap;" vertex="1" parent="1">
          <mxGeometry x="2218" y="1033" width="150" height="80" as="geometry" />
        </mxCell>
        <mxCell id="l1SOu43gs9OJBhmDE_op-77" value="EmergencyServices" style="whiteSpace=wrap;strokeWidth=2;" vertex="1" parent="1">
          <mxGeometry x="1087" y="889" width="196" height="54" as="geometry" />
        </mxCell>
        <mxCell id="l1SOu43gs9OJBhmDE_op-78" value="MedicalDatabase" style="whiteSpace=wrap;strokeWidth=2;" vertex="1" parent="1">
          <mxGeometry x="1914" y="725" width="180" height="54" as="geometry" />
        </mxCell>
        <mxCell id="l1SOu43gs9OJBhmDE_op-79" value="LegalAidDatabase" style="whiteSpace=wrap;strokeWidth=2;" vertex="1" parent="1">
          <mxGeometry x="2497" y="725" width="186" height="54" as="geometry" />
        </mxCell>
        <mxCell id="l1SOu43gs9OJBhmDE_op-80" value="" style="curved=1;startArrow=none;endArrow=block;exitX=0.5;exitY=0.99;entryX=0.5;entryY=0;rounded=0;" edge="1" parent="1" source="l1SOu43gs9OJBhmDE_op-57" target="l1SOu43gs9OJBhmDE_op-58">
          <mxGeometry relative="1" as="geometry">
            <Array as="points" />
          </mxGeometry>
        </mxCell>
        <mxCell id="l1SOu43gs9OJBhmDE_op-81" value="Valid" style="curved=1;startArrow=none;endArrow=block;exitX=0.18;exitY=1;entryX=0.5;entryY=0;rounded=0;" edge="1" parent="1" source="l1SOu43gs9OJBhmDE_op-58" target="l1SOu43gs9OJBhmDE_op-59">
          <mxGeometry relative="1" as="geometry">
            <Array as="points">
              <mxPoint x="579" y="677" />
            </Array>
          </mxGeometry>
        </mxCell>
        <mxCell id="l1SOu43gs9OJBhmDE_op-82" value="Response Received" style="curved=1;startArrow=none;endArrow=block;exitX=0.39;exitY=1;entryX=0.5;entryY=0;rounded=0;" edge="1" parent="1" source="l1SOu43gs9OJBhmDE_op-59" target="l1SOu43gs9OJBhmDE_op-60">
          <mxGeometry relative="1" as="geometry">
            <Array as="points">
              <mxPoint x="534" y="816" />
            </Array>
          </mxGeometry>
        </mxCell>
        <mxCell id="l1SOu43gs9OJBhmDE_op-83" value="Invalid" style="curved=1;startArrow=none;endArrow=block;exitX=0.82;exitY=1;entryX=0.5;entryY=0;rounded=0;" edge="1" parent="1" source="l1SOu43gs9OJBhmDE_op-58" target="l1SOu43gs9OJBhmDE_op-61">
          <mxGeometry relative="1" as="geometry">
            <Array as="points">
              <mxPoint x="853" y="677" />
            </Array>
          </mxGeometry>
        </mxCell>
        <mxCell id="l1SOu43gs9OJBhmDE_op-84" value="" style="curved=1;startArrow=none;endArrow=block;exitX=0.5;exitY=0.99;entryX=0.5;entryY=0;rounded=0;" edge="1" parent="1" source="l1SOu43gs9OJBhmDE_op-62" target="l1SOu43gs9OJBhmDE_op-63">
          <mxGeometry relative="1" as="geometry">
            <Array as="points" />
          </mxGeometry>
        </mxCell>
        <mxCell id="l1SOu43gs9OJBhmDE_op-85" value="" style="curved=1;startArrow=none;endArrow=block;exitX=0.48;exitY=1;entryX=0.5;entryY=0;rounded=0;" edge="1" parent="1" source="l1SOu43gs9OJBhmDE_op-63" target="l1SOu43gs9OJBhmDE_op-64">
          <mxGeometry relative="1" as="geometry">
            <Array as="points">
              <mxPoint x="1185" y="677" />
            </Array>
          </mxGeometry>
        </mxCell>
        <mxCell id="l1SOu43gs9OJBhmDE_op-86" value="" style="curved=1;startArrow=none;endArrow=block;exitX=0.5;exitY=0.99;entryX=0.5;entryY=0;rounded=0;" edge="1" parent="1" source="l1SOu43gs9OJBhmDE_op-65" target="l1SOu43gs9OJBhmDE_op-66">
          <mxGeometry relative="1" as="geometry">
            <Array as="points" />
          </mxGeometry>
        </mxCell>
        <mxCell id="l1SOu43gs9OJBhmDE_op-87" value="" style="curved=1;startArrow=none;endArrow=block;exitX=0.48;exitY=1;entryX=0.5;entryY=0;rounded=0;" edge="1" parent="1" source="l1SOu43gs9OJBhmDE_op-66" target="l1SOu43gs9OJBhmDE_op-67">
          <mxGeometry relative="1" as="geometry">
            <Array as="points">
              <mxPoint x="1706" y="677" />
            </Array>
          </mxGeometry>
        </mxCell>
        <mxCell id="l1SOu43gs9OJBhmDE_op-88" value="" style="curved=1;startArrow=none;endArrow=block;exitX=0.5;exitY=1;entryX=0.5;entryY=0;rounded=0;" edge="1" parent="1" source="l1SOu43gs9OJBhmDE_op-67" target="l1SOu43gs9OJBhmDE_op-68">
          <mxGeometry relative="1" as="geometry">
            <Array as="points" />
          </mxGeometry>
        </mxCell>
        <mxCell id="l1SOu43gs9OJBhmDE_op-89" value="" style="curved=1;startArrow=none;endArrow=block;exitX=0.5;exitY=0.99;entryX=0.5;entryY=0;rounded=0;" edge="1" parent="1" source="l1SOu43gs9OJBhmDE_op-69" target="l1SOu43gs9OJBhmDE_op-70">
          <mxGeometry relative="1" as="geometry">
            <Array as="points" />
          </mxGeometry>
        </mxCell>
        <mxCell id="l1SOu43gs9OJBhmDE_op-90" value="" style="curved=1;startArrow=none;endArrow=block;exitX=0.48;exitY=1;entryX=0.5;entryY=0;rounded=0;" edge="1" parent="1" source="l1SOu43gs9OJBhmDE_op-70" target="l1SOu43gs9OJBhmDE_op-71">
          <mxGeometry relative="1" as="geometry">
            <Array as="points">
              <mxPoint x="2293" y="677" />
            </Array>
          </mxGeometry>
        </mxCell>
        <mxCell id="l1SOu43gs9OJBhmDE_op-91" value="" style="curved=1;startArrow=none;endArrow=block;exitX=0.5;exitY=1;entryX=0.5;entryY=0;rounded=0;" edge="1" parent="1" source="l1SOu43gs9OJBhmDE_op-71" target="l1SOu43gs9OJBhmDE_op-72">
          <mxGeometry relative="1" as="geometry">
            <Array as="points" />
          </mxGeometry>
        </mxCell>
        <mxCell id="l1SOu43gs9OJBhmDE_op-92" value="" style="curved=1;startArrow=none;endArrow=block;exitX=0.62;exitY=1;entryX=0;entryY=0.19;rounded=0;" edge="1" parent="1" source="l1SOu43gs9OJBhmDE_op-63" target="l1SOu43gs9OJBhmDE_op-73">
          <mxGeometry relative="1" as="geometry">
            <Array as="points">
              <mxPoint x="1268" y="677" />
            </Array>
          </mxGeometry>
        </mxCell>
        <mxCell id="l1SOu43gs9OJBhmDE_op-93" value="" style="curved=1;startArrow=none;endArrow=block;exitX=0.5;exitY=1;entryX=0.5;entryY=0;rounded=0;" edge="1" parent="1" source="l1SOu43gs9OJBhmDE_op-60" target="l1SOu43gs9OJBhmDE_op-74">
          <mxGeometry relative="1" as="geometry">
            <Array as="points" />
          </mxGeometry>
        </mxCell>
        <mxCell id="l1SOu43gs9OJBhmDE_op-94" value="" style="curved=1;startArrow=none;endArrow=block;exitX=0.5;exitY=1;entryX=0.5;entryY=0;rounded=0;" edge="1" parent="1" source="l1SOu43gs9OJBhmDE_op-68" target="l1SOu43gs9OJBhmDE_op-75">
          <mxGeometry relative="1" as="geometry">
            <Array as="points" />
          </mxGeometry>
        </mxCell>
        <mxCell id="l1SOu43gs9OJBhmDE_op-95" value="" style="curved=1;startArrow=none;endArrow=block;exitX=0.5;exitY=1;entryX=0.5;entryY=0;rounded=0;" edge="1" parent="1" source="l1SOu43gs9OJBhmDE_op-72" target="l1SOu43gs9OJBhmDE_op-76">
          <mxGeometry relative="1" as="geometry">
            <Array as="points" />
          </mxGeometry>
        </mxCell>
        <mxCell id="l1SOu43gs9OJBhmDE_op-96" value="" style="curved=1;startArrow=none;endArrow=block;exitX=0.95;exitY=1;entryX=0;entryY=0.22;rounded=0;" edge="1" parent="1" source="l1SOu43gs9OJBhmDE_op-59" target="l1SOu43gs9OJBhmDE_op-77">
          <mxGeometry relative="1" as="geometry">
            <Array as="points">
              <mxPoint x="771" y="816" />
              <mxPoint x="771" y="853" />
            </Array>
          </mxGeometry>
        </mxCell>
        <mxCell id="l1SOu43gs9OJBhmDE_op-97" value="" style="curved=1;startArrow=none;endArrow=block;exitX=0.5;exitY=1;entryX=0.5;entryY=0;rounded=0;" edge="1" parent="1" source="l1SOu43gs9OJBhmDE_op-64" target="l1SOu43gs9OJBhmDE_op-77">
          <mxGeometry relative="1" as="geometry">
            <Array as="points" />
          </mxGeometry>
        </mxCell>
        <mxCell id="l1SOu43gs9OJBhmDE_op-98" value="" style="curved=1;startArrow=none;endArrow=block;exitX=0.66;exitY=1;entryX=0.07;entryY=0;rounded=0;" edge="1" parent="1" source="l1SOu43gs9OJBhmDE_op-66" target="l1SOu43gs9OJBhmDE_op-78">
          <mxGeometry relative="1" as="geometry">
            <Array as="points">
              <mxPoint x="1788" y="677" />
            </Array>
          </mxGeometry>
        </mxCell>
        <mxCell id="l1SOu43gs9OJBhmDE_op-99" value="" style="curved=1;startArrow=none;endArrow=block;exitX=0.63;exitY=1;entryX=0.09;entryY=0;rounded=0;" edge="1" parent="1" source="l1SOu43gs9OJBhmDE_op-70" target="l1SOu43gs9OJBhmDE_op-79">
          <mxGeometry relative="1" as="geometry">
            <Array as="points">
              <mxPoint x="2375" y="677" />
            </Array>
          </mxGeometry>
        </mxCell>
      </root>
    </mxGraphModel>
  </diagram>
</mxfile>
